<svg width="128" height="128" viewBox="0 0 128 128" fill="none" xmlns="http://www.w3.org/2000/svg">
<rect width="128" height="128" fill="white"/>
<path d="M60.336 66.736L48.048 38.96L35.888 66.736L27.056 41.2H14.256L33.648 88.624L48.048 61.616L62.512 88.624L81.904 41.2H69.04L60.336 66.736ZM95.8145 86.64C99.5692 86.64 102.748 85.9147 105.351 84.464C107.996 83.0133 110.087 80.8373 111.623 77.936L102.983 75.824C102.257 77.104 101.276 78.064 100.039 78.704C98.8438 79.344 97.3932 79.664 95.6865 79.664C94.1932 79.664 92.9345 79.344 91.9105 78.704C90.8865 78.0213 90.1185 77.04 89.6065 75.76C89.0945 74.48 88.8385 72.944 88.8385 71.152C88.8812 69.1893 89.1372 67.568 89.6065 66.288C90.1185 64.9653 90.8652 63.984 91.8465 63.344C92.8278 62.704 94.0438 62.384 95.4945 62.384C96.6465 62.384 97.6492 62.64 98.5025 63.152C99.3558 63.664 100.017 64.3893 100.487 65.328C100.956 66.2667 101.191 67.376 101.191 68.656C101.191 68.9547 101.105 69.3387 100.935 69.808C100.807 70.2347 100.636 70.5973 100.423 70.896L102.727 67.952H84.5505V73.328H111.431C111.516 73.0293 111.559 72.6667 111.559 72.24C111.559 71.7707 111.559 71.3013 111.559 70.832C111.559 67.6747 110.94 64.9867 109.703 62.768C108.465 60.5493 106.673 58.864 104.327 57.712C101.98 56.5173 99.0998 55.92 95.6865 55.92C92.2732 55.92 89.3078 56.5387 86.7905 57.776C84.3158 59.0133 82.4172 60.784 81.0945 63.088C79.7718 65.392 79.1105 68.1227 79.1105 71.28C79.1105 74.3947 79.7932 77.104 81.1585 79.408C82.5238 81.712 84.4438 83.504 86.9185 84.784C89.4358 86.0213 92.4012 86.64 95.8145 86.64Z" fill="black"/>
</svg>
